<?xml version="1.0" encoding="iso-8859-1"?>
<!-- Generator: Adobe Illustrator 19.0.0, SVG Export Plug-In . SVG Version: 6.00 Build 0)  -->
<svg version="1.1" id="Capa_1" xmlns="http://www.w3.org/2000/svg" xmlns:xlink="http://www.w3.org/1999/xlink" x="0px" y="0px"
	 viewBox="0 0 480 480" style="enable-background:new 0 0 480 480;" xml:space="preserve">
<g>
	<g>
		<path d="M412,0H164c-2.208,0-4.208,0.896-5.656,2.344l-96,96C60.896,99.792,60,101.792,60,104v368c0,4.416,3.584,8,8,8h344
			c4.416,0,8-3.584,8-8V8C420,3.584,416.416,0,412,0z M156,27.312V96H87.312L156,27.312z M404,464H76V112h88c4.416,0,8-3.584,8-8V16
			h232V464z"/>
	</g>
</g>
<g>
	<g>
		<path d="M178.776,321.456c-2.216-6.96-1.728-15.056-1.264-22.888l2.336-39.424c0.224-3.8,0.6-10.152-3.056-15.536
			c-0.88-1.304-2.064-2.512-3.408-3.624c1.344-1.096,2.52-2.296,3.408-3.6c3.664-5.392,3.288-11.744,3.056-15.544l-2.336-39.424
			c-0.464-7.832-0.952-15.928,1.264-22.888c1.664-5.224,5.8-10.904,11.304-11.816l-2.6-15.792
			c-10.728,1.768-20.128,10.696-23.96,22.76c-3.104,9.808-2.504,19.84-1.976,28.688l2.336,39.424c0.08,1.408,0.28,4.712-0.232,5.472
			c-1.064,1.216-6,3.656-10.152,5.024c-3.256,1.072-5.472,4.112-5.504,7.544c-0.024,3.432,2.136,6.496,5.376,7.616
			c4.192,1.456,9.176,4.008,10.176,5.152c0.6,0.888,0.408,4.192,0.328,5.6l-2.336,39.424c-0.528,8.856-1.128,18.888,1.984,28.68
			c3.832,12.056,13.232,20.992,23.96,22.76l2.6-15.792C184.576,332.368,180.432,326.688,178.776,321.456z"/>
	</g>
</g>
<g>
	<g>
		<rect x="268" y="232" width="16" height="16"/>
	</g>
</g>
<g>
	<g>
		<rect x="236.4" y="232" width="16" height="16"/>
	</g>
</g>
<g>
	<g>
		<rect x="204" y="232" width="16" height="16"/>
	</g>
</g>
<g>
	<g>
		<path d="M335.408,232.552c-4.208-1.464-9.2-4.024-10.184-5.152c-0.6-0.888-0.408-4.192-0.328-5.6l2.336-39.432
			c0.528-8.856,1.12-18.896-1.984-28.68c-3.832-12.064-13.24-20.992-23.96-22.76l-2.592,15.792
			c5.504,0.904,9.648,6.584,11.304,11.816c2.208,6.952,1.728,15.056,1.264,22.888l-2.336,39.432c-0.224,3.8-0.6,10.152,3.056,15.544
			c0.888,1.304,2.064,2.504,3.416,3.616c-1.344,1.096-2.528,2.296-3.416,3.6c-3.664,5.392-3.288,11.744-3.056,15.544l2.336,39.424
			c0.464,7.832,0.944,15.936-1.264,22.888c-1.656,5.216-5.792,10.896-11.296,11.808l2.592,15.792
			c10.72-1.768,20.128-10.696,23.96-22.76c3.104-9.784,2.512-19.824,1.984-28.68l-2.336-39.424c-0.08-1.408-0.28-4.712,0.224-5.472
			c1.072-1.216,6-3.656,10.152-5.024c3.256-1.072,5.472-4.104,5.496-7.536C340.8,236.752,338.648,233.68,335.408,232.552z"/>
	</g>
</g>
<g>
</g>
<g>
</g>
<g>
</g>
<g>
</g>
<g>
</g>
<g>
</g>
<g>
</g>
<g>
</g>
<g>
</g>
<g>
</g>
<g>
</g>
<g>
</g>
<g>
</g>
<g>
</g>
<g>
</g>
</svg>
